<svg width="26" height="20" viewBox="0 0 26 20" fill="none" xmlns="http://www.w3.org/2000/svg">
<path d="M12.4175 5.32271L4.41536 11.9134V19.0267C4.41536 19.2109 4.48853 19.3875 4.61876 19.5177C4.749 19.648 4.92563 19.7211 5.10981 19.7211L9.97352 19.7086C10.1571 19.7076 10.3328 19.6341 10.4623 19.5039C10.5918 19.3738 10.6645 19.1977 10.6645 19.0141V14.86C10.6645 14.6759 10.7377 14.4992 10.8679 14.369C10.9981 14.2388 11.1748 14.1656 11.3589 14.1656H14.1367C14.3209 14.1656 14.4975 14.2388 14.6278 14.369C14.758 14.4992 14.8312 14.6759 14.8312 14.86V19.0111C14.8309 19.1025 14.8486 19.193 14.8834 19.2775C14.9182 19.362 14.9693 19.4388 15.0338 19.5035C15.0983 19.5682 15.175 19.6196 15.2594 19.6546C15.3437 19.6897 15.4342 19.7077 15.5256 19.7077L20.3876 19.7211C20.5718 19.7211 20.7484 19.648 20.8786 19.5177C21.0089 19.3875 21.082 19.2109 21.082 19.0267V11.9086L13.0816 5.32271C12.9875 5.24689 12.8704 5.20555 12.7496 5.20555C12.6288 5.20555 12.5116 5.24689 12.4175 5.32271ZM25.0577 9.80231L21.4293 6.81142V0.799703C21.4293 0.661569 21.3744 0.529093 21.2767 0.431418C21.179 0.333743 21.0466 0.27887 20.9084 0.27887H18.4779C18.3397 0.27887 18.2073 0.333743 18.1096 0.431418C18.0119 0.529093 17.957 0.661569 17.957 0.799703V3.95118L14.0712 0.75413C13.6983 0.447263 13.2303 0.279483 12.7474 0.279483C12.2645 0.279483 11.7965 0.447263 11.4236 0.75413L0.437065 9.80231C0.384326 9.8459 0.340692 9.89945 0.308657 9.95991C0.276622 10.0204 0.256815 10.0866 0.250366 10.1547C0.243916 10.2228 0.250953 10.2915 0.271072 10.3569C0.291191 10.4223 0.323999 10.4831 0.367621 10.5358L1.47439 11.8813C1.5179 11.9342 1.5714 11.978 1.63186 12.0102C1.69231 12.0424 1.75852 12.0623 1.82669 12.0689C1.89486 12.0755 1.96366 12.0685 2.02915 12.0485C2.09464 12.0284 2.15553 11.9957 2.20833 11.952L12.4175 3.54319C12.5116 3.46738 12.6288 3.42604 12.7496 3.42604C12.8704 3.42604 12.9875 3.46738 13.0816 3.54319L23.2912 11.952C23.3439 11.9957 23.4047 12.0285 23.4701 12.0486C23.5355 12.0687 23.6043 12.0758 23.6724 12.0693C23.7405 12.0629 23.8067 12.043 23.8671 12.011C23.9276 11.979 23.9811 11.9353 24.0247 11.8826L25.1315 10.5371C25.1751 10.4841 25.2078 10.423 25.2276 10.3573C25.2475 10.2916 25.2542 10.2227 25.2474 10.1544C25.2405 10.0861 25.2202 10.0198 25.1877 9.95941C25.1551 9.89899 25.111 9.8456 25.0577 9.80231Z" fill="#4B4B4B"/>
</svg>
