<svg width="23" height="22" viewBox="0 0 23 22" fill="none" xmlns="http://www.w3.org/2000/svg">
<path d="M19.7812 21.9375H2.59375C1.2998 21.9375 0.25 20.8877 0.25 19.5938V2.40625C0.25 1.1123 1.2998 0.0625 2.59375 0.0625H19.7812C21.0752 0.0625 22.125 1.1123 22.125 2.40625V19.5938C22.125 20.8877 21.0752 21.9375 19.7812 21.9375ZM11.876 7.18652L5.25 13.8125L4.94238 16.6006C4.90332 16.9717 5.21582 17.2891 5.5918 17.25L8.37988 16.9424L15.0059 10.3164C15.1182 10.2041 15.1182 10.0186 15.0059 9.90137L12.2959 7.19141C12.1738 7.07422 11.9883 7.07422 11.876 7.18652ZM17.0957 6.56152L15.626 5.0918C15.167 4.63281 14.4248 4.63281 13.9707 5.0918L12.8428 6.21973C12.7305 6.33203 12.7305 6.51758 12.8428 6.63477L15.5527 9.34473C15.665 9.45703 15.8506 9.45703 15.9678 9.34473L17.0957 8.2168C17.5498 7.7627 17.5498 7.02051 17.0957 6.56152Z" fill="black"/>
</svg>
