<svg width="47" height="38" viewBox="0 0 47 38" fill="none" xmlns="http://www.w3.org/2000/svg">
<path d="M44.2444 0.504485C39.7728 0.761336 30.8851 1.69624 25.3984 5.0956C25.0198 5.33015 24.8052 5.74723 24.8052 6.1833V36.2349C24.8052 37.1888 25.8358 37.7917 26.7048 37.349C32.3498 34.4733 40.5137 33.6887 44.5504 33.474C45.9286 33.4005 47 32.2822 47 30.9418V3.03996C47.0008 1.57731 45.7475 0.418593 44.2444 0.504485ZM21.6016 5.0956C16.1157 1.69624 7.22801 0.762162 2.7564 0.504485C1.25335 0.418593 0 1.57731 0 3.03996V30.9426C0 32.2839 1.07139 33.4021 2.44959 33.4748C6.48791 33.6895 14.6559 34.4749 20.3009 37.3523C21.1675 37.7942 22.1948 37.1921 22.1948 36.2407V6.16843C22.1948 5.73154 21.981 5.33098 21.6016 5.0956Z" fill="black"/>
</svg>
