<svg width="22" height="26" viewBox="0 0 22 26" fill="none" xmlns="http://www.w3.org/2000/svg">
<path d="M11.0625 25.5C12.7871 25.5 14.1861 24.1011 14.1861 22.375H7.939C7.939 24.1011 9.33792 25.5 11.0625 25.5ZM21.5796 18.1899C20.6363 17.1763 18.8711 15.6514 18.8711 10.6562C18.8711 6.8623 16.211 3.8252 12.6241 3.08008V2.0625C12.6241 1.19971 11.9248 0.5 11.0625 0.5C10.2002 0.5 9.50101 1.19971 9.50101 2.0625V3.08008C5.9141 3.8252 3.25394 6.8623 3.25394 10.6562C3.25394 15.6514 1.4888 17.1763 0.545444 18.1899C0.252475 18.5049 0.122592 18.8813 0.125034 19.25C0.130405 20.0508 0.758823 20.8125 1.69242 20.8125H20.4327C21.3662 20.8125 21.9952 20.0508 22 19.25C22.0025 18.8813 21.8726 18.5044 21.5796 18.1899Z" fill="black"/>
</svg>
